<?xml version="1.0" encoding="UTF-8"?>
<svg id="_레이어_1" data-name="레이어 1" xmlns="http://www.w3.org/2000/svg" viewBox="0 0 68 68">
  <defs>
    <style>
      .cls-1 {
        fill: #dadada;
      }

      .cls-2 {
        fill-rule: evenodd;
      }
    </style>
  </defs>
  <circle class="cls-1" cx="34" cy="34" r="34"/>
  <g>
    <path class="cls-2" d="m44.98,34.01c0,1.63,0,3.26,0,4.9,0,3.48-2.59,6.07-6.07,6.07-3.28,0-6.55,0-9.83,0-3.44,0-6.04-2.6-6.04-6.03,0-3.33,0-6.65,0-9.98,0-2.58,1.58-4.79,4.02-5.61.6-.2,1.26-.31,1.89-.32,3.38-.03,6.75-.03,10.13-.01,3.29.01,5.89,2.63,5.91,5.93.01,1.68,0,3.36,0,5.05Zm-4.37-.02c0-3.61-2.99-6.58-6.6-6.58-3.63,0-6.61,2.99-6.6,6.62,0,3.61,2.99,6.58,6.6,6.58,3.63,0,6.61-2.99,6.6-6.62Zm.63-8.82c-.9,0-1.62.73-1.62,1.63,0,.89.73,1.63,1.62,1.64.89,0,1.65-.77,1.64-1.66-.02-.9-.75-1.61-1.65-1.61Z"/>
    <path class="cls-2" d="m33.97,38.3c-2.36-.01-4.28-1.95-4.27-4.32,0-2.36,1.94-4.28,4.31-4.28,2.38,0,4.3,1.95,4.29,4.34-.02,2.36-1.96,4.27-4.33,4.26Z"/>
  </g>
</svg>