<?xml version="1.0" encoding="UTF-8"?>
<svg id="_레이어_1" data-name=" 레이어 1" xmlns="http://www.w3.org/2000/svg" viewBox="0 0 68 68">
  <defs>
    <style>
      .cls-1 {
        fill: #fff;
      }

      .cls-2 {
        isolation: isolate;
        opacity: .6;
      }
    </style>
  </defs>
  <circle class="cls-1" cx="34" cy="34" r="34"/>
  <path class="cls-2" d="m46.06,27.94c-.29-1.08-1.14-1.94-2.23-2.23-1.96-.53-9.84-.53-9.84-.53,0,0-7.87,0-9.84.53-1.08.29-1.94,1.14-2.23,2.23-.53,1.96-.53,6.06-.53,6.06,0,0,0,4.1.53,6.06.29,1.08,1.14,1.94,2.23,2.23,1.96.53,9.84.53,9.84.53,0,0,7.87,0,9.84-.53,1.08-.29,1.94-1.14,2.23-2.23.53-1.96.53-6.06.53-6.06,0,0,0-4.1-.53-6.06Zm-14.58,9.84v-7.55l6.54,3.78-6.54,3.78h0Z"/>
</svg>