<svg width="20" height="21" viewBox="0 0 20 21" fill="none" xmlns="http://www.w3.org/2000/svg">
    <mask id="g89c5iko4a" style="mask-type:alpha" maskUnits="userSpaceOnUse" x="0" y="0" width="20" height="21">
        <path fill="#D9D9D9" d="M0 .5h20v20H0z"/>
    </mask>
    <g mask="url(#g89c5iko4a)">
        <path d="m7.347 10.505 6.33 6.202c.215.211.32.457.312.738a1.041 1.041 0 0 1-.334.739c-.215.21-.466.316-.753.316s-.538-.105-.754-.316l-6.631-6.476A1.684 1.684 0 0 1 5 10.505c0-.21.043-.421.13-.632.085-.211.215-.401.387-.57l6.631-6.497c.216-.21.47-.313.765-.306.294.007.549.116.764.327a1.002 1.002 0 0 1 0 1.477l-6.33 6.201z" fill="#000"/>
    </g>
</svg>
