<svg width="20" height="21" viewBox="0 0 20 21" fill="none" xmlns="http://www.w3.org/2000/svg">
    <mask id="fyfq45ahxa" style="mask-type:alpha" maskUnits="userSpaceOnUse" x="0" y="0" width="20" height="21">
        <path fill="#D9D9D9" d="M0 .5h20v20H0z"/>
    </mask>
    <g mask="url(#fyfq45ahxa)">
        <path d="m11.653 10.495-6.33-6.202a.965.965 0 0 1-.312-.738c.007-.282.118-.528.333-.739.216-.21.467-.316.754-.316s.538.105.754.316l6.631 6.476A1.684 1.684 0 0 1 14 10.495c0 .21-.043.421-.13.632-.085.211-.214.401-.387.57l-6.631 6.497c-.216.21-.47.313-.765.306a1.096 1.096 0 0 1-.764-.327 1.002 1.002 0 0 1 0-1.477l6.33-6.201z" fill="#000"/>
    </g>
</svg>
