<svg width="35" height="35" viewBox="0 0 35 35" fill="none" xmlns="http://www.w3.org/2000/svg">
    <mask id="by9sxgpd1a" style="mask-type:alpha" maskUnits="userSpaceOnUse" x="0" y="0" width="35" height="35">
        <path fill="#D9D9D9" d="M0 0h35v35H0z"/>
    </mask>
    <g mask="url(#by9sxgpd1a)">
        <path d="M17.501 32.08a14.11 14.11 0 0 1-5.65-1.148 14.793 14.793 0 0 1-4.65-3.135 14.793 14.793 0 0 1-3.135-4.649 14.11 14.11 0 0 1-1.148-5.65c0-2.018.383-3.908 1.148-5.67a14.85 14.85 0 0 1 3.136-4.63 14.792 14.792 0 0 1 4.648-3.136 14.11 14.11 0 0 1 5.651-1.148c2.018 0 3.907.383 5.67 1.148a14.851 14.851 0 0 1 4.63 3.136 14.851 14.851 0 0 1 3.135 4.63c.766 1.762 1.149 3.652 1.149 5.67a14.11 14.11 0 0 1-1.149 5.65 14.793 14.793 0 0 1-3.135 4.649 14.852 14.852 0 0 1-4.63 3.135c-1.763.766-3.652 1.149-5.67 1.149zm0-2.989a18.518 18.518 0 0 0 1.64-2.734c.463-.948.84-1.957 1.131-3.026h-5.541c.291 1.07.668 2.078 1.13 3.026.462.948 1.008 1.86 1.64 2.734zm-3.791-.583a20.205 20.205 0 0 1-1.149-2.498 21.409 21.409 0 0 1-.82-2.68H7.439a12.102 12.102 0 0 0 2.643 3.173c1.057.899 2.266 1.567 3.628 2.005zm7.583 0a10.494 10.494 0 0 0 3.628-2.005 12.102 12.102 0 0 0 2.643-3.172h-4.302a21.409 21.409 0 0 1-.82 2.68c-.329.862-.712 1.695-1.149 2.497zM6.199 20.414h4.959a19.243 19.243 0 0 1-.219-2.917 19.243 19.243 0 0 1 .219-2.916H6.199a11.61 11.61 0 0 0-.365 2.917 11.61 11.61 0 0 0 .365 2.916zm7.875 0h6.854a19.243 19.243 0 0 0 .219-2.917 19.243 19.243 0 0 0-.219-2.916h-6.854a19.243 19.243 0 0 0-.219 2.917 19.243 19.243 0 0 0 .22 2.916zm9.771 0h4.958a11.602 11.602 0 0 0 .365-2.917 11.602 11.602 0 0 0-.365-2.916h-4.958a19.243 19.243 0 0 1 .219 2.917 19.243 19.243 0 0 1-.219 2.916zm-.583-8.75h4.302a12.102 12.102 0 0 0-2.643-3.172 10.493 10.493 0 0 0-3.628-2.005c.438.802.82 1.635 1.148 2.497.329.863.602 1.757.82 2.68zm-8.532 0h5.542a17.255 17.255 0 0 0-1.13-3.026 18.517 18.517 0 0 0-1.64-2.734 18.517 18.517 0 0 0-1.641 2.734 17.255 17.255 0 0 0-1.13 3.026zm-7.291 0h4.302c.219-.923.492-1.817.82-2.68.328-.862.711-1.695 1.149-2.497a10.493 10.493 0 0 0-3.628 2.005 12.102 12.102 0 0 0-2.643 3.172z" fill="#000"/>
    </g>
</svg>
