<svg width="30" height="30" viewBox="0 0 30 30" fill="none" xmlns="http://www.w3.org/2000/svg">
    <mask id="a5yn9ljowa" style="mask-type:alpha" maskUnits="userSpaceOnUse" x="0" y="0" width="30" height="30">
        <path fill="#D9D9D9" d="M0 0h30v30H0z"/>
    </mask>
    <g mask="url(#a5yn9ljowa)">
        <path d="m15.008 18.98 9.303-9.496c.316-.323.685-.479 1.107-.468.422.01.791.178 1.107.5.317.324.475.7.475 1.131 0 .43-.158.807-.475 1.13l-9.713 9.948a2.525 2.525 0 0 1-.855.581c-.316.13-.632.194-.949.194-.316 0-.633-.065-.95-.194a2.526 2.526 0 0 1-.853-.581l-9.746-9.948a1.528 1.528 0 0 1-.458-1.146c.01-.441.174-.824.49-1.147C3.807 9.161 4.176 9 4.598 9c.422 0 .791.161 1.108.484l9.302 9.496z" fill="#000"/>
    </g>
</svg>
