<?xml version="1.0" encoding="UTF-8"?>
<svg id="_레이어_1" data-name="레이어 1" xmlns="http://www.w3.org/2000/svg" viewBox="0 0 20 20">
  <defs>
    <style>
      .cls-1 {
        fill: #231815;
      }
    </style>
  </defs>
  <path class="cls-1" d="m8.25,15.44c1.56,0,3.12-.51,4.42-1.52l4.76,4.76c.17.17.4.26.63.26s.46-.09.63-.26c.35-.35.35-.92,0-1.27l-4.76-4.76c.98-1.26,1.52-2.79,1.52-4.42,0-1.92-.75-3.73-2.11-5.09C10.53.35,5.96.35,3.15,3.15.35,5.96.35,10.53,3.15,13.34c1.4,1.4,3.25,2.11,5.09,2.11Zm-3.83-11.02c1.05-1.05,2.44-1.58,3.83-1.58s2.77.53,3.83,1.58c1.02,1.02,1.59,2.38,1.59,3.83s-.56,2.8-1.59,3.83c-2.11,2.11-5.54,2.11-7.65,0-2.11-2.11-2.11-5.54,0-7.65Z"/>
</svg>