<?xml version="1.0" encoding="UTF-8"?>
<svg id="_레이어_1" data-name="레이어 1" xmlns="http://www.w3.org/2000/svg" viewBox="0 0 142 48">
  <defs>
    <style>
      .cls-1 {
        fill: #868687;
      }

      .cls-2 {
        fill: #22b2e9;
      }

      .cls-3 {
        fill: #fed400;
      }
    </style>
  </defs>
  <g>
    <path class="cls-3" d="m39.99,20.39c6.41,0,11.85-1.46,16.48-3.57h0c-1.68.74-5.02,1.56-7.57,1.56-6.5,0-12.29-1.88-17.07-5.52-4.52-3.44-8.73-9.75-10.53-11.28C19.5.04,17.44-.08,15.79.92c-1.74,1.05-2.09,4.04-1.7,7.09.08.63.31,2.34.48,3.48,1.16.88,2.48,1.78,3.94,2.68,5.57,3.41,12.59,6.21,21.46,6.21h.01Z"/>
    <path class="cls-2" d="m77.81,4.59c-1.86-.86-3.68-.48-5.63,1.14-2.05,1.7-5.24,5.08-10.73,8.45-1.55.94-3.2,1.83-4.97,2.64-4.63,2.09-10.08,3.57-16.48,3.57-8.87,0-15.89-2.81-21.46-6.21-1.48-.9-2.78-1.81-3.94-2.68-3.18-2.38-5.28-4.52-6.79-5.76-1.94-1.6-3.76-2-5.63-1.14C.45,5.38-.15,7.48.03,9.61c.38,4.65,3.94,14.11,10.05,21.93,6.8,8.71,18.26,16.18,29.9,16.18s23.09-7.47,29.9-16.18c6.12-7.82,9.68-17.28,10.05-21.93.18-2.14-.42-4.23-2.12-5.02h.01Z"/>
  </g>
  <g>
    <path class="cls-1" d="m93.27,33.3c-1.23-.22-2.48-.3-3.68-.38-1.1-.07-2.23-.15-3.33-.33-.99-.16-1.7-.49-2.01-.93-.18-.25-.25-.53-.18-.88.12-.78.97-1.22,1.46-1.41,3.81-1.48,8.69.25,10.1.81.45.18.96-.03,1.18-.45l.75-1.56c.11-.22.12-.48.04-.71s-.25-.41-.48-.52c-1.62-.75-5.94-2.38-11.14-1.37-2.19.42-4.78,1.75-5.5,4.18-.25.84-.3,1.71-.16,2.67.15,1.07.64,1.93,1.44,2.56.55.44,1.19.75,2.03,1,1.22.36,2.49.47,3.71.56.41.03.81.07,1.22.11.42.04.89.07,1.37.1,1.52.08,3.24.19,4.42.92.59.37.73,1.16.6,1.79-.36,1.7-2.66,2.07-4.37,2.2-4.23.33-7.34-1.41-8.49-2.18-.21-.14-.45-.19-.68-.14-.25.05-.45.19-.59.4l-.97,1.51c-.25.38-.16.9.19,1.22.66.56,1.44,1.05,2.31,1.46,2.12,1,4.6,1.52,7.05,1.52,1.68,0,3.35-.25,4.9-.73,1.48-.47,2.68-1.27,3.46-2.34,1.49-2,1.51-5.07.05-6.8-.94-1.14-2.51-1.9-4.65-2.29h-.05Z"/>
    <path class="cls-1" d="m119.07,27.93c-.67-.78-1.53-1.36-2.59-1.71-.71-.23-1.49-.34-2.4-.34l-12.22.03c-.53,0-.97.44-.97.97v17.81c0,.51.41.92.92.92h2.08c.15,0,.3-.03.44-.11.3-.18.48-.48.48-.81v-6.61h7.83c.74,0,1.41,0,2.09-.07.4-.03.79-.1,1.19-.18.77-.16,1.44-.42,2.04-.79.96-.6,1.66-1.44,2.08-2.51.26-.67.4-1.42.42-2.35.01-.57-.04-1.15-.16-1.71-.21-.96-.62-1.81-1.23-2.53h0Zm-2.75,5.02c-.15.47-.47.81-.94,1.04-.33.16-.7.25-1.08.27-.26.01-.52.04-.78.04h-8.71v-4.67h8.68c.53,0,.97.04,1.36.15.4.11.71.27.97.51.22.19.38.44.47.74.21.67.22,1.31.03,1.93h.01Z"/>
    <path class="cls-1" d="m130.13,29.35c1.88-.47,3.92-.37,5.61.26,1.22.45,2.53,1.6,3.03,2.07.26.25.63.31.96.19l1.7-.67c.27-.11.48-.34.55-.62.07-.29,0-.59-.18-.81-.44-.55-1.05-1.27-1.46-1.63-.73-.64-1.55-1.18-2.49-1.64-3.22-1.57-7.13-1.66-10.47-.22-2.2.94-4.04,2.61-5.05,4.59-1.53,2.98-1.37,7.01.42,9.82,1.77,2.77,5.13,4.6,8.6,4.7h.63c3.08,0,5.57-.66,7.6-2,.92-.62,1.7-1.48,2.18-2.09.16-.21.23-.48.18-.74s-.21-.49-.44-.63l-1.66-.97c-.36-.21-.81-.15-1.11.14-.9.89-1.72,1.56-2.83,1.98-2.49.96-6.32.99-8.84-1.22-.56-.49-1.03-1.11-1.36-1.82-.36-.77-.55-1.6-.56-2.59-.07-3.37,2.46-5.5,5-6.12v.03Z"/>
  </g>
</svg>