<svg width="104" height="34" viewBox="0 0 104 34" fill="none" xmlns="http://www.w3.org/2000/svg">
    <g clip-path="url(#q4lwmjnkga)">
        <path d="M28.936 14.409c4.64 0 8.578-1.053 11.93-2.56 0-.002 0 .003 0 0-1.215.533-3.636 1.118-5.475 1.118-4.703 0-8.896-1.34-12.359-3.953-3.27-2.465-6.316-6.987-7.615-8.083-1.305-1.093-2.79-1.19-3.995-.467-1.258.754-1.519 2.897-1.228 5.08.06.452.222 1.676.35 2.49a36.118 36.118 0 0 0 2.858 1.923c4.03 2.443 9.112 4.452 15.531 4.452h.003z" fill="#F3C300"/>
        <path d="M56.306 3.086c-1.345-.618-2.665-.339-4.076.813-1.486 1.214-3.791 3.642-7.767 6.053a33.124 33.124 0 0 1-3.596 1.893 28.702 28.702 0 0 1-11.93 2.56c-6.42 0-11.502-2.01-15.532-4.453a36.642 36.642 0 0 1-2.858-1.923C8.25 6.324 6.723 4.79 5.638 3.902 4.228 2.75 2.91 2.473 1.562 3.088.325 3.65-.106 5.151.022 6.684c.276 3.34 2.85 10.113 7.273 15.715 4.922 6.236 13.213 11.596 21.642 11.596s16.714-5.36 21.636-11.596c4.423-5.604 7-12.377 7.274-15.715.127-1.53-.304-3.034-1.54-3.596v-.002z" fill="#3CB4E5"/>
        <path d="M67.5 23.629c-.886-.156-1.792-.218-2.668-.274-.792-.051-1.614-.105-2.408-.231-.71-.113-1.229-.35-1.457-.663a.793.793 0 0 1-.132-.629c.092-.561.702-.873 1.057-1.01 2.75-1.06 6.292.175 7.312.578a.668.668 0 0 0 .846-.328l.542-1.122a.65.65 0 0 0-.317-.88c-1.172-.538-4.299-1.706-8.066-.979-1.58.307-3.457 1.255-3.986 2.995a4.245 4.245 0 0 0-.12 1.912c.114.768.464 1.385 1.042 1.836.396.312.862.538 1.464.712.885.258 1.801.333 2.688.403.293.024.589.048.882.078.309.032.645.05.995.07 1.1.061 2.346.131 3.197.66.429.266.526.838.434 1.287-.255 1.213-1.923 1.482-3.157 1.579a9.908 9.908 0 0 1-6.137-1.558.645.645 0 0 0-.499-.097.656.656 0 0 0-.426.288l-.707 1.08a.666.666 0 0 0 .135.87c.477.4 1.039.754 1.67 1.05 1.536.716 3.326 1.084 5.102 1.084 1.218 0 2.427-.172 3.544-.523 1.072-.336 1.94-.916 2.51-1.676 1.076-1.437 1.092-3.625.034-4.88-.683-.81-1.817-1.358-3.37-1.635l-.003.003z" fill="#727171"/>
        <path d="M64.779 32.38c-1.826 0-3.594-.376-5.115-1.088a7.61 7.61 0 0 1-1.676-1.055.699.699 0 0 1-.144-.913l.708-1.08a.7.7 0 0 1 .974-.201 9.86 9.86 0 0 0 6.115 1.552c1.223-.097 2.877-.363 3.127-1.552.092-.438 0-.994-.418-1.252-.843-.523-2.085-.593-3.18-.655h-.042c-.336-.021-.656-.04-.954-.07a44.408 44.408 0 0 0-.825-.072l-.054-.006c-.887-.07-1.803-.145-2.696-.402-.607-.178-1.076-.406-1.475-.72-.586-.457-.941-1.082-1.055-1.858a4.313 4.313 0 0 1 .122-1.929c.534-1.756 2.422-2.71 4.011-3.018 3.778-.73 6.916.443 8.087.98a.692.692 0 0 1 .337.927l-.543 1.12a.7.7 0 0 1-.89.343c-1.016-.403-4.55-1.635-7.286-.577-.348.134-.947.44-1.036.985a.768.768 0 0 0 .127.605c.222.306.732.537 1.435.65.792.126 1.61.18 2.402.23.877.057 1.78.116 2.675.274 1.562.277 2.7.83 3.39 1.646 1.068 1.265 1.052 3.473-.036 4.92-.575.765-1.448 1.348-2.527 1.686a11.83 11.83 0 0 1-3.556.524l-.002.006zm-5.639-4.386a.629.629 0 0 0-.532.287l-.707 1.08a.627.627 0 0 0 .13.825c.475.4 1.033.749 1.663 1.044 1.513.706 3.27 1.082 5.085 1.082a11.79 11.79 0 0 0 3.536-.52c1.066-.336 1.928-.91 2.492-1.666 1.069-1.423 1.085-3.595.038-4.836-.678-.803-1.803-1.35-3.349-1.622-.892-.158-1.793-.217-2.666-.274-.794-.053-1.613-.107-2.41-.233-.72-.116-1.246-.355-1.479-.677a.82.82 0 0 1-.138-.653c.095-.577.716-.897 1.076-1.036 2.761-1.066 6.314.172 7.336.577.31.12.662-.013.806-.311l.542-1.12a.612.612 0 0 0 .025-.484.615.615 0 0 0-.328-.354c-1.167-.537-4.288-1.703-8.047-.975-1.57.303-3.436 1.243-3.96 2.973-.181.599-.22 1.219-.119 1.898.111.76.459 1.37 1.03 1.816.394.306.855.531 1.454.706.884.258 1.798.33 2.682.4l.055.006c.271.021.55.045.827.072.298.03.616.048.952.067h.04c1.104.065 2.354.134 3.214.669.442.274.545.862.448 1.321-.258 1.233-1.945 1.507-3.19 1.606a9.908 9.908 0 0 1-6.159-1.566.626.626 0 0 0-.347-.104v.002zM86.395 19.815c-.48-.56-1.112-.972-1.871-1.222-.51-.166-1.077-.25-1.73-.25l-8.248.02a.7.7 0 0 0-.702.695V31.82a.66.66 0 0 0 .662.658l1.505.005a.663.663 0 0 0 .665-.66v-4.743h5.068c.534 0 1.017-.002 1.513-.045a6.73 6.73 0 0 0 .862-.13 4.579 4.579 0 0 0 1.473-.571 3.614 3.614 0 0 0 1.503-1.8c.19-.483.284-1.017.303-1.683a5.203 5.203 0 0 0-.114-1.23c-.149-.69-.447-1.3-.89-1.813v.008zm-1.988 3.601c-.108.336-.334.58-.686.747a2.16 2.16 0 0 1-.779.199c-.187.013-.374.027-.56.027H76.682v-3.346h5.68c.387 0 .699.035.978.11.282.075.516.193.705.36.16.136.274.314.342.526.152.48.157.945.016 1.38l.003-.003z" fill="#727171"/>
        <path d="m76.013 32.518-1.507-.005a.696.696 0 0 1-.697-.693V19.06c0-.4.33-.728.737-.728l8.247-.018c.657 0 1.226.083 1.742.25.764.252 1.399.665 1.884 1.232.445.515.746 1.13.895 1.826.087.405.128.819.117 1.238-.019.669-.114 1.208-.306 1.694a3.639 3.639 0 0 1-1.516 1.816 4.646 4.646 0 0 1-1.484.577 6.722 6.722 0 0 1-.865.129c-.494.04-.98.043-1.516.043h-5.036v4.708a.695.695 0 0 1-.697.692h.002zm6.78-14.141-8.247.019a.666.666 0 0 0-.667.663V31.82c0 .344.28.626.627.626l1.505.005a.628.628 0 0 0 .635-.626v-4.774h5.1c.535 0 1.018-.003 1.511-.043.288-.024.575-.067.857-.126a4.596 4.596 0 0 0 1.462-.567 3.576 3.576 0 0 0 1.489-1.783c.187-.48.282-1.012.3-1.673.012-.411-.026-.822-.113-1.222a4.034 4.034 0 0 0-.881-1.797c-.478-.558-1.102-.966-1.855-1.213-.508-.167-1.072-.247-1.72-.247l-.003-.003zm-5.117 6.045H76.65v-3.413h5.711c.39 0 .705.035.99.11.288.078.524.196.719.365.163.14.282.322.352.542.155.49.16.96.017 1.4-.114.343-.342.593-.703.765a2.24 2.24 0 0 1-.792.204c-.208.013-.382.027-.564.027h-4.705zm-.957-.067h5.662c.18 0 .35-.011.559-.027a2.1 2.1 0 0 0 .767-.196c.342-.164.562-.4.668-.728.14-.427.135-.886-.017-1.359a1.084 1.084 0 0 0-.33-.51 1.726 1.726 0 0 0-.695-.352 3.656 3.656 0 0 0-.97-.11h-5.647v3.282h.003zM95.36 20.837c1.36-.33 2.837-.26 4.06.188.887.325 1.828 1.144 2.192 1.483.19.177.455.228.694.134l1.231-.478a.659.659 0 0 0 .402-.446.646.646 0 0 0-.128-.582c-.32-.39-.765-.908-1.06-1.166a8.015 8.015 0 0 0-1.798-1.176c-2.324-1.125-5.159-1.184-7.58-.156-1.592.677-2.924 1.872-3.662 3.282-1.114 2.134-.99 5.027.304 7.03 1.278 1.98 3.718 3.3 6.219 3.37.154.006.306.006.456.006 2.231 0 4.035-.47 5.502-1.43.667-.437 1.229-1.054 1.581-1.495a.655.655 0 0 0-.19-.975l-1.201-.692a.668.668 0 0 0-.797.096c-.651.634-1.251 1.117-2.053 1.424-1.804.687-4.575.708-6.403-.876a3.93 3.93 0 0 1-.982-1.302c-.26-.546-.393-1.152-.407-1.85-.049-2.412 1.78-3.94 3.613-4.386l.008-.003z" fill="#727171"/>
        <path d="M96.694 32.36c-.15 0-.304 0-.456-.005-2.511-.07-4.963-1.4-6.246-3.384-1.299-2.014-1.423-4.917-.306-7.063.738-1.417 2.08-2.618 3.677-3.297 2.43-1.034 5.272-.975 7.608.155.683.334 1.274.72 1.806 1.182.295.258.74.779 1.063 1.168a.684.684 0 0 1-.285 1.08l-1.231.478a.696.696 0 0 1-.73-.142c-.363-.336-1.301-1.15-2.18-1.475-1.218-.446-2.69-.515-4.041-.185-1.82.443-3.637 1.96-3.588 4.353.014.695.146 1.297.404 1.837.239.505.567.94.971 1.291 1.814 1.574 4.572 1.553 6.368.868.797-.304 1.391-.787 2.039-1.415a.706.706 0 0 1 .838-.102l1.202.692a.698.698 0 0 1 .336.47.68.68 0 0 1-.138.554c-.353.443-.914 1.063-1.587 1.503-1.475.967-3.281 1.437-5.522 1.437h-.002zm.314-14.42a9.255 9.255 0 0 0-3.62.73c-1.584.674-2.913 1.863-3.645 3.265-1.11 2.127-.985 5.003.3 6.998 1.273 1.969 3.703 3.285 6.192 3.355 2.439.067 4.378-.395 5.94-1.418.667-.438 1.223-1.05 1.573-1.49a.61.61 0 0 0 .124-.5.626.626 0 0 0-.303-.424l-1.202-.693a.634.634 0 0 0-.756.091c-.654.634-1.256 1.123-2.064 1.431-1.812.69-4.6.712-6.436-.88-.412-.36-.746-.8-.99-1.314-.26-.55-.396-1.16-.41-1.863-.048-2.43 1.793-3.972 3.638-4.42 1.364-.334 2.85-.264 4.081.187.892.328 1.839 1.15 2.205 1.488a.629.629 0 0 0 .659.13l1.231-.479a.619.619 0 0 0 .38-.424.612.612 0 0 0-.122-.553c-.32-.39-.765-.905-1.055-1.16a7.921 7.921 0 0 0-1.79-1.171 9.05 9.05 0 0 0-3.932-.884l.002-.003z" fill="#727171"/>
    </g>
    <defs>
        <clipPath id="q4lwmjnkga">
            <path fill="#fff" d="M0 0h104v34H0z"/>
        </clipPath>
    </defs>
</svg>
